<svg xmlns="http://www.w3.org/2000/svg" width="520" height="420">
<rect width="100%" height="100%" fill="#ffffff" rx="18" />
<text x="40" y="36" font-size="22" font-weight="700" fill="#0f172a">Confusion Matrix BiLSTM</text>
<text x="40" y="62" font-size="13" fill="#475569">Hang = nhan that, cot = nhan du doan</text>
<text x="70" y="92" font-size="12" fill="#64748b">True label</text>
<text x="210" y="76" font-size="12" fill="#64748b">Predicted label</text>
<text x="120" y="165.00" text-anchor="end" font-size="13" fill="#334155">view</text><text x="190.00" y="100" text-anchor="middle" font-size="13" fill="#334155">view</text><text x="120" y="245.00" text-anchor="end" font-size="13" fill="#334155">click</text><text x="270.00" y="100" text-anchor="middle" font-size="13" fill="#334155">click</text><text x="120" y="325.00" text-anchor="end" font-size="13" fill="#334155">add_to_cart</text><text x="350.00" y="100" text-anchor="middle" font-size="13" fill="#334155">add_to_cart</text>
<rect x="150" y="120" width="80" height="80" fill="rgb(30,166,219)" stroke="#ffffff" stroke-width="3" rx="10" /><text x="190.0" y="165.0" text-anchor="middle" font-size="16" font-weight="700" fill="#0f172a">195</text><rect x="230" y="120" width="80" height="80" fill="rgb(30,243,229)" stroke="#ffffff" stroke-width="3" rx="10" /><text x="270.0" y="165.0" text-anchor="middle" font-size="16" font-weight="700" fill="#0f172a">5</text><rect x="310" y="120" width="80" height="80" fill="rgb(30,245,224)" stroke="#ffffff" stroke-width="3" rx="10" /><text x="350.0" y="165.0" text-anchor="middle" font-size="16" font-weight="700" fill="#0f172a">0</text><rect x="150" y="200" width="80" height="80" fill="rgb(30,242,233)" stroke="#ffffff" stroke-width="3" rx="10" /><text x="190.0" y="245.0" text-anchor="middle" font-size="16" font-weight="700" fill="#0f172a">9</text><rect x="230" y="200" width="80" height="80" fill="rgb(30,171,247)" stroke="#ffffff" stroke-width="3" rx="10" /><text x="270.0" y="245.0" text-anchor="middle" font-size="16" font-weight="700" fill="#0f172a">183</text><rect x="310" y="200" width="80" height="80" fill="rgb(30,199,219)" stroke="#ffffff" stroke-width="3" rx="10" /><text x="350.0" y="245.0" text-anchor="middle" font-size="16" font-weight="700" fill="#0f172a">115</text><rect x="150" y="280" width="80" height="80" fill="rgb(30,245,225)" stroke="#ffffff" stroke-width="3" rx="10" /><text x="190.0" y="325.0" text-anchor="middle" font-size="16" font-weight="700" fill="#0f172a">1</text><rect x="230" y="280" width="80" height="80" fill="rgb(30,237,245)" stroke="#ffffff" stroke-width="3" rx="10" /><text x="270.0" y="325.0" text-anchor="middle" font-size="16" font-weight="700" fill="#0f172a">21</text><rect x="310" y="280" width="80" height="80" fill="rgb(30,135,255)" stroke="#ffffff" stroke-width="3" rx="10" /><text x="350.0" y="325.0" text-anchor="middle" font-size="16" font-weight="700" fill="#0f172a">271</text>
</svg>